<svg width="233" height="131" viewBox="0 0 233 131" fill="none" xmlns="http://www.w3.org/2000/svg">
<path d="M55.1442 130.8C46.2642 130.8 38.5242 129.6 31.9242 127.2C25.3242 124.8 19.8042 121.5 15.3642 117.3C11.0442 113.1 7.68422 108.18 5.28422 102.54C2.88422 96.78 1.50422 90.6 1.14422 84C0.904219 80.76 0.724219 76.92 0.604219 72.48C0.604219 68.04 0.604219 63.6 0.604219 59.16C0.724219 54.6 0.904219 50.64 1.14422 47.28C1.50422 40.68 2.88422 34.62 5.28422 29.1C7.80422 23.46 11.3442 18.6 15.9042 14.52C20.4642 10.32 25.9842 7.08 32.4642 4.79999C38.9442 2.39999 46.5042 1.19999 55.1442 1.19999C63.6642 1.19999 71.1642 2.39999 77.6442 4.79999C84.2442 7.08 89.7642 10.32 94.2042 14.52C98.7642 18.6 102.244 23.46 104.644 29.1C107.164 34.62 108.664 40.68 109.144 47.28C109.384 50.64 109.504 54.6 109.504 59.16C109.504 63.6 109.504 68.04 109.504 72.48C109.504 76.92 109.384 80.76 109.144 84C108.664 90.6 107.224 96.78 104.824 102.54C102.544 108.18 99.1842 113.1 94.7442 117.3C90.3042 121.5 84.7842 124.8 78.1842 127.2C71.5842 129.6 63.9042 130.8 55.1442 130.8ZM55.1442 100.02C59.9442 100.02 63.4242 98.46 65.5842 95.34C67.7442 92.22 68.8842 88.14 69.0042 83.1C69.2442 79.62 69.3642 75.84 69.3642 71.76C69.3642 67.68 69.3642 63.6 69.3642 59.52C69.3642 55.32 69.2442 51.6 69.0042 48.36C68.8842 43.56 67.7442 39.6 65.5842 36.48C63.5442 33.24 60.0642 31.56 55.1442 31.44C50.2242 31.56 46.7442 33.24 44.7042 36.48C42.6642 39.6 41.5242 43.56 41.2842 48.36C41.1642 51.6 41.0442 55.32 40.9242 59.52C40.9242 63.6 40.9242 67.68 40.9242 71.76C41.0442 75.84 41.1642 79.62 41.2842 83.1C41.5242 88.14 42.6642 92.22 44.7042 95.34C46.8642 98.46 50.3442 100.02 55.1442 100.02ZM129.704 129C128.384 129 127.244 128.58 126.284 127.74C125.444 126.78 125.024 125.64 125.024 124.32V108.66C125.024 107.82 125.204 106.44 125.564 104.52C126.044 102.6 127.364 100.86 129.524 99.3L139.964 89.4C151.004 81.12 160.184 74.16 167.504 68.52C174.824 62.88 180.284 57.96 183.884 53.76C187.604 49.56 189.464 45.66 189.464 42.06C189.464 39.18 188.744 36.72 187.304 34.68C185.984 32.52 183.284 31.44 179.204 31.44C176.204 31.44 173.804 32.1 172.004 33.42C170.204 34.74 168.824 36.36 167.864 38.28C167.024 40.2 166.364 42 165.884 43.68C165.404 45.36 164.564 46.5 163.364 47.1C162.164 47.58 160.784 47.82 159.224 47.82H131.144C129.944 47.82 128.984 47.46 128.264 46.74C127.544 46.02 127.184 45.12 127.184 44.04C127.304 37.68 128.624 31.92 131.144 26.76C133.784 21.48 137.384 16.86 141.944 12.9C146.504 8.93999 151.904 5.93999 158.144 3.89999C164.504 1.73999 171.464 0.659989 179.024 0.659989C189.584 0.659989 198.644 2.27999 206.204 5.51999C213.764 8.75999 219.584 13.32 223.664 19.2C227.744 25.08 229.784 32.1 229.784 40.26C229.784 46.5 228.344 52.32 225.464 57.72C222.584 63 218.504 68.1 213.224 73.02C207.944 77.94 201.704 82.98 194.504 88.14L185.684 96.78H227.804C229.124 96.78 230.204 97.26 231.044 98.22C232.004 99.18 232.484 100.32 232.484 101.64V124.32C232.484 125.64 232.004 126.78 231.044 127.74C230.204 128.58 229.124 129 227.804 129H129.704Z" fill="white"/>
</svg>
