<svg width="235" height="130" viewBox="0 0 235 130" fill="none" xmlns="http://www.w3.org/2000/svg">
<path d="M54.9138 129.8C46.0338 129.8 38.2938 128.6 31.6938 126.2C25.0938 123.8 19.5738 120.5 15.1338 116.3C10.8138 112.1 7.45375 107.18 5.05375 101.54C2.65375 95.78 1.27375 89.6 0.91375 83C0.67375 79.76 0.49375 75.92 0.373751 71.48C0.373751 67.04 0.373751 62.6 0.373751 58.16C0.49375 53.6 0.67375 49.64 0.91375 46.28C1.27375 39.68 2.65375 33.62 5.05375 28.1C7.57375 22.46 11.1138 17.6 15.6738 13.52C20.2338 9.32 25.7538 6.08 32.2338 3.79999C38.7138 1.39999 46.2738 0.199993 54.9138 0.199993C63.4338 0.199993 70.9338 1.39999 77.4138 3.79999C84.0138 6.08 89.5338 9.32 93.9738 13.52C98.5338 17.6 102.014 22.46 104.414 28.1C106.934 33.62 108.434 39.68 108.914 46.28C109.154 49.64 109.274 53.6 109.274 58.16C109.274 62.6 109.274 67.04 109.274 71.48C109.274 75.92 109.154 79.76 108.914 83C108.434 89.6 106.994 95.78 104.594 101.54C102.314 107.18 98.9538 112.1 94.5138 116.3C90.0738 120.5 84.5538 123.8 77.9538 126.2C71.3538 128.6 63.6738 129.8 54.9138 129.8ZM54.9138 99.02C59.7138 99.02 63.1938 97.46 65.3538 94.34C67.5138 91.22 68.6538 87.14 68.7738 82.1C69.0138 78.62 69.1338 74.84 69.1338 70.76C69.1338 66.68 69.1338 62.6 69.1338 58.52C69.1338 54.32 69.0138 50.6 68.7738 47.36C68.6538 42.56 67.5138 38.6 65.3538 35.48C63.3138 32.24 59.8338 30.56 54.9138 30.44C49.9938 30.56 46.5138 32.24 44.4738 35.48C42.4338 38.6 41.2938 42.56 41.0538 47.36C40.9338 50.6 40.8138 54.32 40.6938 58.52C40.6938 62.6 40.6938 66.68 40.6938 70.76C40.8138 74.84 40.9338 78.62 41.0538 82.1C41.2938 87.14 42.4338 91.22 44.4738 94.34C46.6338 97.46 50.1138 99.02 54.9138 99.02ZM178.433 129.8C168.473 129.8 159.953 128.6 152.873 126.2C145.913 123.8 140.213 120.8 135.773 117.2C131.453 113.48 128.273 109.52 126.233 105.32C124.193 101.12 123.113 97.22 122.993 93.62C122.993 92.54 123.353 91.64 124.073 90.92C124.793 90.08 125.693 89.66 126.773 89.66H156.653C158.213 89.66 159.413 89.96 160.253 90.56C161.093 91.04 161.873 91.82 162.593 92.9C163.433 94.34 164.573 95.6 166.013 96.68C167.453 97.64 169.193 98.36 171.233 98.84C173.273 99.2 175.733 99.38 178.613 99.38C183.773 99.38 187.673 98.24 190.313 95.96C192.953 93.56 194.273 90.44 194.273 86.6C194.273 82.76 192.953 80 190.313 78.32C187.673 76.52 183.893 75.62 178.973 75.62H157.733C156.413 75.62 155.273 75.14 154.313 74.18C153.473 73.22 153.053 72.14 153.053 70.94V58.52C153.053 56.84 153.353 55.46 153.953 54.38C154.673 53.18 155.453 52.34 156.293 51.86L183.473 32.6H134.873C133.553 32.6 132.413 32.12 131.453 31.16C130.613 30.2 130.193 29.12 130.193 27.92V6.68C130.193 5.35999 130.613 4.27999 131.453 3.43999C132.413 2.47999 133.553 1.99999 134.873 1.99999H222.353C223.673 1.99999 224.753 2.47999 225.593 3.43999C226.553 4.27999 227.033 5.35999 227.033 6.68V25.76C227.033 27.32 226.733 28.64 226.133 29.72C225.533 30.8 224.813 31.64 223.973 32.24L199.673 52.04L200.393 52.4C206.753 53.6 212.513 55.64 217.673 58.52C222.833 61.28 226.913 65.18 229.913 70.22C232.913 75.26 234.413 81.62 234.413 89.3C234.413 97.46 231.953 104.6 227.033 110.72C222.233 116.72 215.633 121.4 207.233 124.76C198.953 128.12 189.353 129.8 178.433 129.8Z" fill="white"/>
</svg>
